<svg width="420" height="300" viewBox="0 0 420 300" fill="none" xmlns="http://www.w3.org/2000/svg">
  <!-- Background -->
  <rect width="420" height="300" fill="#F8FAFC"/>
  
  <!-- Sidebar -->
  <rect x="0" y="0" width="80" height="300" fill="#EFF6FF"/>
  <circle cx="40" cy="40" r="15" fill="#DBEAFE"/>
  <rect x="25" y="80" width="30" height="6" rx="3" fill="#BFDBFE"/>
  <rect x="25" y="100" width="30" height="6" rx="3" fill="#BFDBFE"/>
  <rect x="25" y="120" width="30" height="6" rx="3" fill="#BFDBFE"/>
  
  <!-- Main Content Area -->
  <rect x="100" y="20" width="300" height="260" rx="12" fill="white" stroke="#E2E8F0"/>
  
  <!-- Header inside card -->
  <rect x="120" y="40" width="100" height="10" rx="5" fill="#F1F5F9"/>
  <rect x="340" y="40" width="40" height="10" rx="5" fill="#3B82F6"/>
  
  <!-- Donut Chart -->
  <circle cx="180" cy="120" r="40" stroke="#E2E8F0" stroke-width="12" fill="none"/>
  <circle cx="180" cy="120" r="40" stroke="#3B82F6" stroke-width="12" fill="none" stroke-dasharray="180 251" stroke-dashoffset="0" transform="rotate(-90 180 120)"/>
  <text x="180" y="125" font-family="sans-serif" font-size="14" font-weight="bold" fill="#1E293B" text-anchor="middle">92%</text>
  
  <!-- Stats Row -->
  <rect x="260" y="90" width="120" height="60" rx="8" fill="#F8FAFC"/>
  <rect x="275" y="105" width="40" height="8" rx="4" fill="#CBD5E1"/>
  <rect x="275" y="125" width="80" height="8" rx="4" fill="#E2E8F0"/>
  
  <!-- Bottom Bar Chart -->
  <rect x="120" y="190" width="260" height="70" rx="8" fill="#F8FAFC"/>
  <rect x="140" y="220" width="15" height="30" rx="4" fill="#93C5FD"/>
  <rect x="170" y="205" width="15" height="45" rx="4" fill="#60A5FA"/>
  <rect x="200" y="230" width="15" height="20" rx="4" fill="#93C5FD"/>
  <rect x="230" y="210" width="15" height="40" rx="4" fill="#3B82F6"/>
  <rect x="260" y="225" width="15" height="25" rx="4" fill="#60A5FA"/>
  <rect x="290" y="200" width="15" height="50" rx="4" fill="#2563EB"/>
  <rect x="320" y="235" width="15" height="15" rx="4" fill="#93C5FD"/>
  
</svg>
